<svg xmlns="http://www.w3.org/2000/svg" width="1899" height="1068" viewBox="0 0 1899 1068" version="1.1">
	<path d="M 0 24.500 L 0 49 28.500 49 L 57 49 57 24.500 L 57 0 28.500 0 L 0 0 0 24.500 M 62 24.500 L 62 49 104.250 48.999 L 146.500 48.998 146.866 24.499 L 147.232 0 104.616 0 L 62 0 62 24.500 M 151 24.500 L 151 49 193.652 49 L 236.304 49 235.652 38.344 C 235.293 32.484, 235 21.459, 235 13.844 L 235 0 193 0 L 151 0 151 24.500 M 240 24.500 L 240 49 282.500 49 L 325 49 325 38.158 C 325 32.195, 324.705 21.170, 324.345 13.658 L 323.690 -0 281.845 -0 L 240 0 240 24.500 M 329 24.500 L 329 49 371 49 L 413 49 413 24.500 L 413 0 371 0 L 329 0 329 24.500 M 418 24.511 L 418 49.022 460.250 48.761 L 502.500 48.500 502.768 24.250 L 503.036 0 460.518 0 L 418 0 418 24.511 M 507 24.500 L 507 49 549.654 49 L 592.309 49 591.658 36.250 C 591.301 29.238, 591.006 18.213, 591.004 11.750 L 591 0 549 0 L 507 0 507 24.500 M 596 24.500 L 596 49 638.654 49 L 681.309 49 680.658 36.250 C 680.301 29.238, 680.006 18.213, 680.004 11.750 L 680 0 638 0 L 596 0 596 24.500 M 685.648 5.250 C 685.301 8.138, 685.013 19.162, 685.009 29.750 L 685 49 727 49 L 769 49 769 24.500 L 769 0 727.639 0 L 686.279 0 685.648 5.250 M 774 24.500 L 774 49 816.500 49 L 859 49 859 24.500 L 859 0 816.500 0 L 774 0 774 24.500 M 863 24.500 L 863 49 905.654 49 L 948.309 49 947.658 36.250 C 947.301 29.238, 947.006 18.213, 947.004 11.750 L 947 0 905 0 L 863 0 863 24.500 M 952 24.500 L 952 49 994.548 49 L 1037.096 49 1036.852 24.500 L 1036.607 -0 994.304 -0 L 952 0 952 24.500 M 1041.075 24.511 L 1041.181 49.022 1083.340 48.761 L 1125.500 48.500 1125.822 37.500 C 1125.999 31.450, 1125.840 20.538, 1125.469 13.250 L 1124.795 0 1082.882 0 L 1040.969 0 1041.075 24.511 M 1130.500 24.253 L 1130.500 48.500 1172.750 48.761 L 1215 49.022 1215 24.511 L 1215 0 1172.750 0.003 L 1130.500 0.007 1130.500 24.253 M 1219.123 24.496 L 1219.500 48.992 1261.904 48.996 L 1304.309 49 1303.658 36.250 C 1303.301 29.238, 1303.006 18.213, 1303.004 11.750 L 1303 0 1260.873 -0 L 1218.746 -0 1219.123 24.496 M 1308 12.343 C 1308 19.132, 1308.294 30.157, 1308.654 36.843 L 1309.307 49 1351.154 49 L 1393 49 1393 24.500 L 1393 0 1350.500 0 L 1308 0 1308 12.343 M 1397.813 8.250 C 1397.710 12.787, 1397.563 23.813, 1397.486 32.750 L 1397.346 49 1439.673 49 L 1482 49 1482 24.500 L 1482 0 1440 0 L 1398 0 1397.813 8.250 M 1486.655 13.658 C 1486.295 21.170, 1486 32.195, 1486 38.158 L 1486 49 1528.500 49 L 1571 49 1571 24.500 L 1571 0 1529.155 0 L 1487.310 0 1486.655 13.658 M 1575.879 4.750 C 1575.812 7.362, 1575.699 18.386, 1575.629 29.246 L 1575.500 48.993 1617.750 48.996 L 1660 49 1660 36.657 C 1660 29.868, 1659.706 18.843, 1659.346 12.157 L 1658.693 0 1617.346 0 L 1576 0 1575.879 4.750 M 1665 18.353 C 1665 28.448, 1664.711 39.473, 1664.358 42.853 L 1663.715 49 1706.358 49 L 1749 49 1749 24.500 L 1749 0 1707 0 L 1665 0 1665 18.353 M 1753.346 12.157 C 1753.706 18.843, 1754 29.868, 1754 36.657 L 1754 49 1796 49 L 1838 49 1838 24.500 L 1838 0 1795.346 0 L 1752.693 0 1753.346 12.157 M 1843 24.500 L 1843 49 1871 49 L 1899 49 1899 24.500 L 1899 0 1871 0 L 1843 0 1843 24.500 M 0 94.985 L 0 138 28.358 138 L 56.715 138 57.196 127.250 C 57.460 121.338, 57.637 102.100, 57.588 84.500 L 57.500 52.500 28.750 52.235 L 0 51.969 0 94.985 M 62.667 52.667 C 62.300 53.033, 62 72.383, 62 95.667 L 62 138 104 138 L 146 138 146.168 124.750 C 146.260 117.463, 146.246 98.675, 146.136 83 C 146.027 67.325, 145.951 53.938, 145.969 53.250 C 145.993 52.270, 137.083 52, 104.667 52 C 81.933 52, 63.033 52.300, 62.667 52.667 M 151 95 L 151 138 193 138 L 235 138 235.109 124.250 C 235.169 116.688, 235.351 97.338, 235.513 81.250 L 235.808 52 193.404 52 L 151 52 151 95 M 240 95 L 240 138 282.457 138 L 324.914 138 324.977 98.226 C 325.012 76.350, 324.750 57, 324.395 55.226 L 323.750 52 281.875 52 L 240 52 240 95 M 329.667 52.667 C 329.300 53.033, 329 72.388, 329 95.678 L 329 138.022 371.250 137.761 L 413.500 137.500 413.685 94.750 L 413.870 52 372.102 52 C 349.129 52, 330.033 52.300, 329.667 52.667 M 418.667 52.667 C 418.300 53.033, 418 72.383, 418 95.667 L 418 138 459.904 138 L 501.808 138 502.395 127.750 C 502.718 122.112, 502.874 102.763, 502.741 84.750 L 502.500 52 460.917 52 C 438.046 52, 419.033 52.300, 418.667 52.667 M 507.021 95 L 506.961 138 549.231 137.997 L 591.500 137.994 591.677 94.997 L 591.854 52 549.467 52 L 507.081 52 507.021 95 M 596 95 L 596 138 638.423 138 L 680.846 138 680.893 95 L 680.940 52 638.470 52 L 596 52 596 95 M 685.567 52.891 C 685.264 53.382, 685.053 72.732, 685.099 95.891 L 685.182 138 727.576 138 L 769.971 138 769.945 95 L 769.919 52 728.019 52 C 704.568 52, 685.875 52.392, 685.567 52.891 M 774.916 52.250 C 774.870 52.388, 774.598 71.742, 774.312 95.261 L 773.792 138.022 816.146 137.761 L 858.500 137.500 858.677 94.750 L 858.853 52 816.927 52 C 793.867 52, 774.962 52.112, 774.916 52.250 M 863.021 95 L 863.081 138 905.508 138 L 947.934 138 947.865 95 L 947.797 52 905.379 52 L 862.961 52 863.021 95 M 952 95 L 952 138 994.521 138 L 1037.041 138 1036.978 96.471 C 1036.943 73.630, 1036.661 54.280, 1036.351 53.471 C 1035.866 52.209, 1029.842 52, 993.893 52 L 952 52 952 95 M 1041.021 95.011 L 1040.961 138.022 1083.231 137.761 L 1125.500 137.500 1125.721 94.750 L 1125.941 52 1083.511 52 L 1041.081 52 1041.021 95.011 M 1130.429 53.323 C 1130.150 54.051, 1130.052 73.289, 1130.211 96.073 L 1130.500 137.500 1171.934 137.761 C 1204.413 137.966, 1213.544 137.750, 1214.180 136.761 C 1214.627 136.068, 1214.975 116.713, 1214.955 93.750 L 1214.917 52 1172.927 52 C 1139.018 52, 1130.840 52.255, 1130.429 53.323 M 1219 95 L 1219 138 1261.518 138 L 1304.036 138 1303.979 95 L 1303.921 52 1261.461 52 L 1219 52 1219 95 M 1308.602 94.740 L 1308.704 137.500 1350.863 137.761 L 1393.021 138.022 1392.761 95.261 L 1392.500 52.500 1350.500 52.240 L 1308.500 51.980 1308.602 94.740 M 1397.870 53.250 C 1397.799 53.938, 1397.686 73.287, 1397.620 96.250 L 1397.500 137.999 1439.778 138 L 1482.055 138 1481.968 95 L 1481.881 52 1439.941 52 C 1407.124 52, 1397.972 52.272, 1397.870 53.250 M 1486.657 63.250 C 1485.837 77.490, 1485.798 134.309, 1486.607 136.418 C 1487.147 137.826, 1491.830 138, 1529.126 138 L 1571.039 138 1570.979 95 L 1570.919 52 1529.112 52 L 1487.306 52 1486.657 63.250 M 1575.500 95.001 L 1575.500 138.001 1617.750 138 L 1660 138 1660 95 L 1660 52 1617.750 52.001 L 1575.500 52.001 1575.500 95.001 M 1664.349 95.003 L 1664.198 138 1706.619 138 L 1749.041 138 1748.978 96.471 C 1748.943 73.630, 1748.661 54.280, 1748.351 53.471 C 1747.866 52.209, 1741.874 52, 1706.143 52.003 L 1664.500 52.006 1664.349 95.003 M 1754.039 53.250 C 1754.060 53.938, 1753.885 72.779, 1753.649 95.120 C 1753.414 117.460, 1753.538 136.253, 1753.926 136.881 C 1754.441 137.714, 1765.846 137.952, 1796.066 137.761 L 1837.500 137.500 1837.721 94.750 L 1837.941 52 1795.971 52 C 1763.040 52, 1754.008 52.269, 1754.039 53.250 M 1842.625 53.534 C 1842.302 54.378, 1842.209 62.365, 1842.420 71.284 C 1842.630 80.203, 1842.847 98.862, 1842.901 112.750 L 1843 138 1871 138 L 1899 138 1899 95 L 1899 52 1871.107 52 C 1846.961 52, 1843.135 52.206, 1842.625 53.534 M 0 184 L 0 227 28.393 227 C 50.224 227, 56.880 226.711, 57.193 225.750 C 57.417 225.063, 57.532 220, 57.448 214.500 C 57.363 209, 57.228 190.213, 57.147 172.750 L 57 141 28.500 141 L 0 141 0 184 M 62 184 L 62 227 104.250 227 L 146.500 227 146.673 184 L 146.846 141 104.423 141 L 62 141 62 184 M 151 184 L 151 227 192.883 227 L 234.767 227 235.366 224.750 C 235.695 223.512, 235.790 214.400, 235.577 204.500 C 235.364 194.600, 235.146 176.262, 235.094 163.750 L 235 141 193 141 L 151 141 151 184 M 240 184 L 240 227 282.497 227 L 324.993 227 324.841 184 L 324.688 141 282.344 141 L 240 141 240 184 M 329 184 L 329 227 371 227 C 403.881 227, 413.021 226.729, 413.098 225.750 C 413.152 225.063, 413.265 205.713, 413.348 182.750 L 413.500 141 371.250 141 L 329 141 329 184 M 418.032 183.989 L 418.121 227 460.472 227 L 502.823 227 502.662 184.250 L 502.500 141.500 460.221 141.239 L 417.943 140.978 418.032 183.989 M 507 184 L 507 227 549.528 227 L 592.055 227 591.778 184.004 L 591.500 141.009 549.250 141.004 L 507 141 507 184 M 596.097 184 L 596.334 227 638.638 227 L 680.943 227 680.722 184 L 680.500 141 638.180 141 L 595.860 141 596.097 184 M 685.032 184 L 685.115 227 727.058 227 C 759.870 227, 769.031 226.728, 769.141 225.750 C 769.219 225.063, 769.331 205.713, 769.391 182.750 L 769.500 141 727.224 141 L 684.949 141 685.032 184 M 774.066 184 L 774.121 227 816.519 227 L 858.917 227 858.945 184 L 858.973 141 816.492 141 L 774.011 141 774.066 184 M 863.021 184 L 862.961 227 905.381 227 L 947.801 227 947.650 184 L 947.500 141.001 905.291 141 L 863.081 141 863.021 184 M 952 184 L 952 227 994.515 227 L 1037.031 227 1036.894 184 L 1036.757 141 994.379 141 L 952 141 952 184 M 1041 184.011 L 1041 227.022 1083.250 226.761 L 1125.500 226.500 1125.633 183.750 L 1125.765 141 1083.383 141 L 1041 141 1041 184.011 M 1130.107 184 L 1130.259 227 1172.597 227 L 1214.936 227 1214.826 184 L 1214.716 141 1172.335 141 L 1129.954 141 1130.107 184 M 1219.088 184 L 1219.086 227 1261.503 227 L 1303.921 227 1303.710 184.001 L 1303.500 141.002 1261.295 141.001 L 1219.090 141 1219.088 184 M 1308.207 183.997 L 1308.500 226.994 1350.762 226.997 L 1393.024 227 1392.915 184 L 1392.806 141 1350.360 141 L 1307.914 141 1308.207 183.997 M 1397.418 183.999 L 1397.500 226.998 1439.143 226.999 C 1476.194 227, 1480.853 226.826, 1481.393 225.418 C 1481.727 224.548, 1482 205.198, 1482 182.418 L 1482 141 1439.668 141 L 1397.336 141 1397.418 183.999 M 1486.964 142.250 C 1486.415 161.423, 1486.177 216.182, 1486.623 220.750 L 1487.233 227 1529.077 227 L 1570.920 227 1570.979 184 L 1571.037 141 1529.019 141 C 1496.089 141, 1486.992 141.270, 1486.964 142.250 M 1575.480 183.998 L 1575.500 226.997 1617.655 226.998 L 1659.810 227 1659.655 184 L 1659.500 141 1617.480 141 L 1575.460 141 1575.480 183.998 M 1664.404 183.996 L 1664.500 226.993 1706.750 226.996 L 1749 227 1749 184 L 1749 141 1706.654 141 L 1664.308 141 1664.404 183.996 M 1753.783 141.750 C 1753.664 142.162, 1753.552 161.511, 1753.533 184.747 L 1753.500 226.993 1795.750 226.997 L 1838 227 1838 184 L 1838 141 1796 141 C 1772.900 141, 1753.902 141.338, 1753.783 141.750 M 1842.717 179.250 C 1842.836 200.288, 1842.948 219.637, 1842.967 222.250 L 1843 227 1871 227 L 1899 227 1899 184 L 1899 141 1870.750 141 L 1842.500 141.001 1842.717 179.250 M 0 273 L 0 316 28.750 315.997 L 57.500 315.994 57.835 272.997 L 58.169 230 29.085 230 L 0 230 0 273 M 62 273 L 62 316 103.893 316 C 136.535 316, 145.871 315.724, 146.173 314.750 C 146.601 313.364, 146.627 293.455, 146.249 255.250 L 146 230 104 230 L 62 230 62 273 M 151 273 L 151 316 192.840 316 L 234.680 316 235.290 273.824 C 235.626 250.627, 235.671 231.277, 235.391 230.824 C 235.111 230.371, 216.009 230, 192.941 230 L 151 230 151 273 M 240 273 L 240 316 282.269 316 L 324.539 316 324.822 273 L 325.105 230 282.552 230 L 240 230 240 273 M 329 273 L 329 316 371.250 315.996 L 413.500 315.993 413.869 275.160 C 414.073 252.703, 413.930 233.354, 413.552 232.164 L 412.865 230 370.933 230 L 329 230 329 273 M 418 273 L 418 316 460.568 316 L 503.135 316 502.861 274.250 C 502.710 251.287, 502.407 231.938, 502.187 231.250 C 501.875 230.276, 492.527 230, 459.893 230 L 418 230 418 273 M 507 273 L 507 316 549 316 L 591 316 591.250 293.750 C 591.388 281.512, 591.500 262.164, 591.500 250.754 L 591.500 230.009 549.250 230.004 L 507 230 507 273 M 596 273 L 596 316 638.250 315.998 L 680.500 315.996 680.828 272.998 L 681.155 230 638.578 230 L 596 230 596 273 M 685.176 273 L 685.181 316 727.341 315.998 L 769.500 315.996 769.862 272.998 L 770.224 230 727.697 230 L 685.170 230 685.176 273 M 774.239 272.739 L 774.500 315.500 816.833 315.761 L 859.165 316.022 858.833 273.261 L 858.500 230.500 816.239 230.239 L 773.979 229.978 774.239 272.739 M 863.667 230.667 C 863.300 231.033, 863 250.383, 863 273.667 L 863 316 905.250 315.996 L 947.500 315.993 947.811 272.996 L 948.122 230 906.228 230 C 883.186 230, 864.033 230.300, 863.667 230.667 M 952 273 L 952 316 994.338 316 L 1036.675 316 1036.886 273 L 1037.096 230 994.548 230 L 952 230 952 273 M 1041.162 273 L 1041.118 316 1083.384 316 L 1125.650 316 1125.864 273 L 1126.078 230 1083.642 230 L 1041.205 230 1041.162 273 M 1130.516 230.975 C 1130.184 231.511, 1129.985 250.861, 1130.073 273.975 L 1130.233 316 1172.737 316 L 1215.242 316 1214.871 273.001 L 1214.500 230.002 1172.809 230.001 C 1146.810 230, 1130.891 230.367, 1130.516 230.975 M 1219.222 272.750 L 1219.500 315.500 1261.500 315.759 L 1303.500 316.017 1303.873 273.009 L 1304.246 230 1261.595 230 L 1218.944 230 1219.222 272.750 M 1309.038 230.750 C 1309.058 231.162, 1308.830 250.512, 1308.530 273.750 L 1307.985 316 1350.493 316 L 1393 316 1393 273 L 1393 230 1351 230 C 1327.900 230, 1309.017 230.338, 1309.038 230.750 M 1397.531 230.949 C 1397.209 231.471, 1397.067 250.821, 1397.215 273.949 L 1397.486 316 1439.743 316 L 1482 316 1482 273 L 1482 230 1440.059 230 C 1414.678 230, 1397.886 230.375, 1397.531 230.949 M 1486.601 272.250 C 1486.800 295.488, 1486.971 314.837, 1486.981 315.250 C 1486.992 315.663, 1505.900 316, 1529 316 L 1571 316 1571 273 L 1571 230 1528.620 230 L 1486.240 230 1486.601 272.250 M 1575.899 236.250 C 1575.843 239.688, 1575.731 259.037, 1575.649 279.250 L 1575.500 316 1617.564 316 L 1659.629 316 1659.845 273 L 1660.061 230 1618.031 230 L 1576 230 1575.899 236.250 M 1664.500 273.001 L 1664.500 316.001 1706.750 316 L 1749 316 1749 273 L 1749 230 1706.750 230 L 1664.500 230.001 1664.500 273.001 M 1753.457 273.002 L 1753.415 316 1795.707 316 L 1838 316 1838 273 L 1838 230 1795.750 230.002 L 1753.500 230.003 1753.457 273.002 M 1842.917 230.416 C 1842.688 230.645, 1842.622 249.995, 1842.771 273.416 L 1843.042 316 1871.021 316 L 1899 316 1899 273 L 1899 230 1871.167 230 C 1855.858 230, 1843.146 230.187, 1842.917 230.416 M 0 362 L 0 405 28.421 405 L 56.841 405 57.264 402.250 C 57.697 399.429, 57.689 364.194, 57.248 335.250 L 57 319 28.500 319 L 0 319 0 362 M 62 362.011 L 62 405.022 104.250 404.761 L 146.500 404.500 146.500 361.753 L 146.500 319.006 104.250 319.003 L 62 319 62 362.011 M 151.021 362 L 150.967 405 193.233 404.997 L 235.500 404.994 235.795 370.247 C 235.957 351.136, 235.804 331.788, 235.455 327.250 L 234.820 319 192.948 319 L 151.076 319 151.021 362 M 240 362.011 L 240 405.022 282.250 404.761 L 324.500 404.500 324.788 364 C 324.946 341.725, 324.825 322.488, 324.519 321.250 L 323.962 319 281.981 319 L 240 319 240 362.011 M 329.021 362.011 L 329.081 405.022 371.291 404.761 L 413.500 404.500 413.809 373 C 413.979 355.675, 413.823 336.438, 413.461 330.250 L 412.803 319 370.882 319 L 328.961 319 329.021 362.011 M 418 362.011 L 418 405.022 460.250 404.761 L 502.500 404.500 502.500 361.750 L 502.500 319.001 460.250 319 L 418 319 418 362.011 M 507 362 L 507 405 549.410 405 L 591.820 405 591.759 362 L 591.699 319 549.350 319 L 507 319 507 362 M 596.066 362 L 595.896 405 638.435 405 L 680.975 405 680.943 363.466 C 680.926 340.623, 680.658 321.273, 680.349 320.466 C 679.867 319.210, 673.796 319, 638.011 319 L 596.235 319 596.066 362 M 685.066 362 L 685.068 405 727.564 405 L 770.061 405 769.931 365.250 C 769.859 343.387, 769.569 324.038, 769.287 322.250 L 768.773 319 726.918 319 L 685.064 319 685.066 362 M 774.696 319.750 C 774.463 320.163, 774.193 339.512, 774.095 362.750 L 773.916 405 816.366 405 L 858.816 405 858.664 362 L 858.512 319 816.815 319 C 793.882 319, 774.928 319.337, 774.696 319.750 M 863.066 362 L 863.016 405 905.366 405 L 947.716 405 947.817 362 L 947.919 319 905.518 319 L 863.116 319 863.066 362 M 952 362.011 L 952 405.022 994.250 404.761 L 1036.500 404.500 1036.756 364 C 1036.896 341.725, 1036.775 322.488, 1036.487 321.250 L 1035.962 319 993.981 319 L 952 319 952 362.011 M 1041.569 319.889 C 1041.266 320.378, 1041.113 339.733, 1041.227 362.900 L 1041.435 405.021 1083.467 404.761 L 1125.500 404.500 1125.798 367 C 1125.962 346.375, 1125.817 327.137, 1125.476 324.250 L 1124.856 319 1083.487 319 C 1060.430 319, 1041.875 319.394, 1041.569 319.889 M 1130.304 361.750 L 1130.500 404.500 1172.750 404.761 L 1215 405.022 1215 362.011 L 1215 319 1172.554 319 L 1130.107 319 1130.304 361.750 M 1219.099 362 L 1219.042 405 1261.567 405 L 1304.092 405 1303.947 362 L 1303.802 319 1261.479 319 L 1219.157 319 1219.099 362 M 1308.500 362.001 L 1308.500 405.001 1350.729 405 L 1392.957 405 1392.955 363.519 C 1392.953 340.704, 1392.689 321.354, 1392.369 320.519 C 1391.860 319.194, 1386.467 319, 1350.143 319.001 L 1308.500 319.001 1308.500 362.001 M 1397.822 320.250 C 1397.725 320.938, 1397.612 340.287, 1397.572 363.250 L 1397.500 405 1439.750 405 L 1482 405 1481.989 365.750 C 1481.983 344.163, 1481.699 324.813, 1481.358 322.750 L 1480.738 319 1439.369 319 C 1407.035 319, 1397.961 319.273, 1397.822 320.250 M 1486.540 343.250 C 1486.152 356.587, 1485.984 375.937, 1486.167 386.250 L 1486.500 404.999 1528.729 405 L 1570.959 405 1570.956 362 L 1570.953 319 1529.099 319 L 1487.245 319 1486.540 343.250 M 1575.455 362.002 L 1575.410 405 1617.751 405 L 1660.092 405 1659.947 362 L 1659.802 319 1617.651 319.002 L 1575.500 319.004 1575.455 362.002 M 1664.500 362.001 L 1664.500 405.022 1706.500 404.761 L 1748.500 404.500 1748.500 362 L 1748.500 319.500 1706.500 319.240 L 1664.500 318.980 1664.500 362.001 M 1753.989 319.239 C 1753.983 319.383, 1753.871 338.738, 1753.739 362.250 L 1753.500 405 1795.788 405 L 1838.075 405 1837.788 362.250 L 1837.500 319.500 1795.750 319.239 C 1772.787 319.095, 1753.995 319.095, 1753.989 319.239 M 1842.968 319.750 C 1842.943 320.330, 1842.968 400.980, 1842.994 404.250 C 1842.997 404.663, 1855.600 405, 1871 405 L 1899 405 1899 362 L 1899 319 1871 319 C 1855.600 319, 1842.985 319.337, 1842.968 319.750 M 0 451 L 0 494 28.500 494 C 54.898 494, 57.015 493.871, 57.205 492.250 C 57.318 491.288, 57.430 471.939, 57.455 449.254 L 57.500 408.007 28.750 408.004 L 0 408 0 451 M 62 451 L 62 494 104.250 493.998 L 146.500 493.996 146.765 450.998 L 147.029 408 104.515 408 L 62 408 62 451 M 151.021 451 L 151.077 494 193.539 494 L 236 494 236 478.162 C 236 469.452, 235.703 450.102, 235.339 435.162 L 234.679 408 192.822 408 L 150.965 408 151.021 451 M 240 451.011 L 240 494.022 282.250 493.761 L 324.500 493.500 324.540 450.750 L 324.581 408 282.290 408 L 240 408 240 451.011 M 329.021 451 L 329.076 494 371.038 494 C 403.820 494, 413.050 493.727, 413.228 492.750 C 413.353 492.063, 413.465 472.714, 413.478 449.754 L 413.500 408.009 371.233 408.004 L 328.967 408 329.021 451 M 418.040 451 L 418.146 494 459.958 494 L 501.770 494 502.318 488.750 C 502.620 485.863, 502.900 466.512, 502.941 445.750 L 503.016 408 460.474 408 L 417.933 408 418.040 451 M 507 451 L 507 494 549.395 494 L 591.790 494 591.948 481.750 C 592.035 475.012, 591.790 455.663, 591.403 438.750 L 590.701 408 548.850 408 L 507 408 507 451 M 596.214 450.750 L 596.500 493.500 638.803 493.761 L 681.105 494.022 680.803 451.012 L 680.500 408.003 638.214 408.001 L 595.929 408 596.214 450.750 M 685.239 450.750 L 685.500 493.500 727.500 493.500 L 769.500 493.500 769.500 450.754 L 769.500 408.009 727.239 408.004 L 684.979 408 685.239 450.750 M 774.235 451 L 774.500 494 816.747 494 L 858.994 494 858.934 451 L 858.875 408 816.423 408 L 773.971 408 774.235 451 M 863.021 451 L 863.080 494 905.540 494 L 948 494 948 479.663 C 948 471.777, 947.703 452.427, 947.339 436.663 L 946.678 408 904.820 408 L 862.963 408 863.021 451 M 952 451 L 952 494 994.500 494 L 1037 494 1037 451 L 1037 408 994.500 408 L 952 408 952 451 M 1041.118 451.011 L 1040.956 494.022 1083.228 493.761 L 1125.500 493.500 1125.500 450.750 L 1125.500 408 1083.390 408 L 1041.281 408 1041.118 451.011 M 1130.148 451 L 1130.137 494 1171.929 494 L 1213.721 494 1214.352 488.750 C 1214.699 485.863, 1214.987 466.512, 1214.991 445.750 L 1215 408 1172.579 408 L 1130.158 408 1130.148 451 M 1219.079 451 L 1219.084 494 1261.437 494 L 1303.790 494 1303.948 481.750 C 1304.035 475.012, 1303.790 455.663, 1303.403 438.750 L 1302.701 408 1260.887 408 L 1219.073 408 1219.079 451 M 1308.566 450.750 L 1309.099 493.500 1351.065 493.761 L 1393.032 494.022 1392.979 451.011 L 1392.925 408 1350.479 408 L 1308.033 408 1308.566 450.750 M 1397.500 451.011 L 1397.500 494.021 1439.500 493.761 L 1481.500 493.500 1481.600 450.750 L 1481.700 408 1439.600 408 L 1397.500 408 1397.500 451.011 M 1486.827 418.250 C 1486.566 423.887, 1486.386 443.125, 1486.426 461 L 1486.500 493.500 1528.737 493.761 L 1570.974 494.022 1570.945 451.011 L 1570.916 408 1529.109 408 L 1487.301 408 1486.827 418.250 M 1575.702 450.750 L 1575.904 493.500 1617.952 493.761 L 1660 494.022 1660 466.170 C 1660 450.851, 1659.705 431.496, 1659.344 423.159 L 1658.688 408 1617.094 408 L 1575.500 408 1575.702 450.750 M 1664.500 450.999 L 1664.500 493.999 1706.750 494 L 1749 494 1749 451 L 1749 408 1706.750 408 L 1664.500 407.999 1664.500 450.999 M 1753.484 450.998 L 1753.500 493.996 1795.750 493.998 L 1838 494 1838 451 L 1838 408 1795.734 408 L 1753.468 408 1753.484 450.998 M 1842.981 426.750 C 1842.971 437.063, 1842.858 456.413, 1842.731 469.750 L 1842.500 494.001 1870.750 494 L 1899 494 1899 451 L 1899 408 1871 408 L 1843 408 1842.981 426.750 M 0 540 L 0 583 28.500 583 L 57 583 57 580.250 C 57 578.737, 57.112 559.387, 57.250 537.250 L 57.500 496.999 28.750 497 L 0 497 0 540 M 62.021 540 L 62.077 583 103.922 583 C 142.951 583, 145.794 582.882, 146.178 581.250 C 146.939 578.011, 147.171 517.680, 146.462 507.289 L 145.761 497 103.863 497 L 61.965 497 62.021 540 M 151.021 540 L 150.965 583 192.830 583 L 234.696 583 234.848 579.750 C 234.932 577.962, 235.113 558.612, 235.250 536.750 L 235.500 497 193.289 497 L 151.077 497 151.021 540 M 240 540 L 240 583 281.883 583 C 320.933 583, 323.797 582.882, 324.221 581.250 C 324.471 580.288, 324.727 560.938, 324.790 538.250 L 324.904 497 282.452 497 L 240 497 240 540 M 329.044 540 L 329.041 583 371.021 583 L 413 583 413.234 559.750 C 413.363 546.962, 413.476 527.613, 413.484 516.752 L 413.500 497.004 371.273 497.002 L 329.047 497 329.044 540 M 418.043 540 L 418.152 583 460.558 583 L 502.964 583 502.880 540 L 502.797 497 460.365 497 L 417.933 497 418.043 540 M 507 540 L 507 583 549 583 L 591 583 591.018 580.750 C 591.028 579.513, 591.146 560.163, 591.279 537.750 L 591.521 497 549.261 497 L 507 497 507 540 M 596.021 540 L 595.965 583 637.983 583 C 670.879 583, 680.021 582.729, 680.095 581.750 C 680.148 581.063, 680.337 561.712, 680.516 538.750 L 680.842 497 638.459 497 L 596.077 497 596.021 540 M 685.364 539.739 L 685.500 582.500 727.135 582.761 L 768.770 583.022 769.135 580.261 C 769.336 578.742, 769.500 559.500, 769.500 537.500 L 769.500 497.500 727.364 497.239 L 685.229 496.978 685.364 539.739 M 774.043 540 L 774.152 583 816.552 583 L 858.952 583 858.888 540 L 858.823 497 816.378 497 L 773.933 497 774.043 540 M 863.044 540 L 863.041 583 905.271 582.999 L 947.500 582.998 947.581 539.999 L 947.663 497 905.355 497 L 863.047 497 863.044 540 M 952 540 L 952 583 993.893 583 C 1029.258 583, 1035.871 582.778, 1036.334 581.573 C 1036.635 580.788, 1036.903 561.438, 1036.930 538.573 L 1036.980 497 994.490 497 L 952 497 952 540 M 1041.372 540.012 L 1041.243 583.022 1083.372 582.761 L 1125.500 582.500 1125.774 539.750 L 1126.049 497 1083.774 497.001 L 1041.500 497.002 1041.372 540.012 M 1130.378 539.750 L 1130.500 582.500 1172.708 582.761 L 1214.917 583.022 1214.916 540.011 L 1214.915 497 1172.585 497 L 1130.255 497 1130.378 539.750 M 1219.075 540 L 1219.048 583 1261.274 582.999 L 1303.500 582.998 1303.747 539.999 L 1303.995 497 1261.548 497 L 1219.101 497 1219.075 540 M 1308.966 497.750 C 1308.948 498.163, 1308.763 517.513, 1308.555 540.750 L 1308.178 583 1349.982 583 C 1384.976 583, 1391.874 582.771, 1392.326 581.594 C 1392.622 580.821, 1392.896 561.471, 1392.933 538.594 L 1393.001 497 1351.001 497 C 1327.900 497, 1308.985 497.337, 1308.966 497.750 M 1397.980 497.750 C 1397.969 498.163, 1397.874 517.400, 1397.769 540.500 L 1397.578 582.500 1439.174 582.761 L 1480.770 583.022 1481.152 580.261 C 1481.363 578.742, 1481.678 559.388, 1481.854 537.250 L 1482.174 497 1440.087 497 C 1416.939 497, 1397.991 497.337, 1397.980 497.750 M 1486.563 536.252 C 1486.598 557.839, 1486.710 577.188, 1486.813 579.250 L 1487 583 1528.959 583 L 1570.919 583 1570.979 540 L 1571.039 497 1528.769 497.002 L 1486.500 497.005 1486.563 536.252 M 1575.977 497.750 C 1575.965 498.163, 1575.852 517.513, 1575.727 540.750 L 1575.500 583 1617.548 583 L 1659.596 583 1659.729 540 L 1659.862 497 1617.931 497 C 1594.869 497, 1575.990 497.337, 1575.977 497.750 M 1664.500 540.011 L 1664.500 583.021 1706.500 582.761 L 1748.500 582.500 1748.761 539.750 L 1749.021 497 1706.761 497 L 1664.500 497 1664.500 540.011 M 1753.662 537.250 C 1753.751 559.388, 1753.863 578.737, 1753.912 580.250 L 1754 583 1795.393 583 C 1830.923 583, 1836.866 582.791, 1837.351 581.527 C 1837.662 580.717, 1837.944 561.367, 1837.978 538.527 L 1838.040 497 1795.770 497 L 1753.500 497.001 1753.662 537.250 M 1842.736 539.750 L 1842.971 582.500 1870.986 582.766 L 1899 583.031 1899 540.016 L 1899 497 1870.750 497 L 1842.500 496.999 1842.736 539.750 M 0 629 L 0 672 28.358 672 L 56.715 672 57.358 665.853 C 58.188 657.912, 58.178 621.948, 57.340 601.750 L 56.687 586 28.343 586 L 0 586 0 629 M 62 629 L 62 672 104.571 672 L 147.141 672 146.821 629.005 L 146.500 586.011 104.250 586.005 L 62 586 62 629 M 151 629 L 151 672 192.881 672 L 234.762 672 235.291 662.750 C 235.582 657.663, 235.873 638.313, 235.937 619.750 L 236.054 586 193.527 586 L 151 586 151 629 M 240 628.989 L 240 672 282.527 672 L 325.055 672 324.777 629.250 L 324.500 586.500 282.250 586.239 L 240 585.978 240 628.989 M 329.648 591.250 C 329.301 594.138, 329.013 613.487, 329.009 634.250 L 329 672 370.864 672 L 412.728 672 413.381 667.250 C 413.740 664.638, 414.007 645.288, 413.974 624.250 L 413.914 586 372.096 586 L 330.279 586 329.648 591.250 M 418 629 L 418 672 460.565 672 L 503.129 672 502.815 629.002 L 502.500 586.003 460.250 586.002 L 418 586 418 629 M 507 629 L 507 672 549 672 L 591 672 591.085 663.250 C 591.131 658.438, 591.356 639.087, 591.584 620.250 L 592 586 549.500 586 L 507 586 507 629 M 596 629 L 596 672 638.280 672 L 680.560 672 680.847 629 L 681.134 586 638.567 586 L 596 586 596 629 M 685 629 L 685 672 726.861 672 L 768.721 672 769.352 666.750 C 769.699 663.862, 769.987 644.513, 769.991 623.750 L 770 586 727.500 586 L 685 586 685 629 M 774.158 629 L 773.916 672 816.546 672 L 859.176 672 858.838 629.001 L 858.500 586.001 816.450 586.001 L 774.400 586 774.158 629 M 863.082 629 L 862.901 672 904.832 672 L 946.762 672 947.353 662.750 C 947.679 657.663, 947.932 638.313, 947.916 619.750 L 947.887 586 905.575 586 L 863.263 586 863.082 629 M 952 629 L 952 672 994.500 672 L 1037 672 1037 629 L 1037 586 994.500 586 L 952 586 952 629 M 1041.060 620.557 C 1040.975 639.563, 1041.213 658.913, 1041.590 663.557 L 1042.275 672 1084.138 672 L 1126 672 1126 629 L 1126 586 1083.607 586 L 1041.215 586 1041.060 620.557 M 1130 629 L 1130 672 1172.480 672 L 1214.960 672 1214.801 629 L 1214.643 586 1172.321 586 L 1130 586 1130 629 M 1219.710 586.750 C 1219.486 587.163, 1219.214 606.513, 1219.107 629.750 L 1218.912 672 1260.820 672 L 1302.728 672 1303.364 667.360 C 1303.714 664.809, 1304 645.459, 1304 624.360 L 1304 586 1262.059 586 C 1238.991 586, 1219.934 586.337, 1219.710 586.750 M 1308.500 629.001 L 1308.500 672.001 1350.108 672 L 1391.715 672 1392.358 665.853 C 1392.711 662.473, 1393 643.123, 1393 622.853 L 1393 586 1350.750 586.001 L 1308.500 586.002 1308.500 629.001 M 1397.140 619.750 C 1397.018 638.313, 1397.216 657.663, 1397.578 662.750 L 1398.238 672 1440.136 672 L 1482.033 672 1481.979 629 L 1481.924 586 1439.642 586 L 1397.360 586 1397.140 619.750 M 1486.172 605.751 C 1485.991 616.613, 1486.159 635.962, 1486.544 648.750 L 1487.245 672 1529.122 672 L 1571 672 1571 629 L 1571 586 1528.750 586.001 L 1486.500 586.002 1486.172 605.751 M 1575.500 629 L 1575.500 672 1617.108 672 L 1658.715 672 1659.358 665.853 C 1659.711 662.473, 1660 643.123, 1660 622.853 L 1660 586 1617.750 586 L 1575.500 586 1575.500 629 M 1664.393 587.582 C 1664.727 588.452, 1665 607.802, 1665 630.582 L 1665 672 1707 672 L 1749 672 1749 629 L 1749 586 1706.393 586 C 1667.952 586, 1663.845 586.155, 1664.393 587.582 M 1753.900 587.250 C 1753.844 587.938, 1753.732 607.287, 1753.650 630.249 L 1753.500 671.999 1795.750 671.999 L 1838 672 1838 629 L 1838 586 1796 586 C 1763.120 586, 1753.978 586.271, 1753.900 587.250 M 1842.700 608.250 C 1842.810 620.487, 1842.923 639.837, 1842.950 651.250 L 1843 672 1871 672 L 1899 672 1899 629 L 1899 586 1870.750 586 L 1842.500 586 1842.700 608.250 M 0 718.015 L 0 761.031 28.750 760.765 L 57.500 760.500 57.840 755 C 58.027 751.975, 57.861 732.737, 57.473 712.250 L 56.767 675 28.383 675 L 0 675 0 718.015 M 62 718 L 62 761 104.250 760.995 L 146.500 760.990 146.500 720.745 C 146.500 698.610, 146.387 679.263, 146.250 677.750 L 146 675 104 675 L 62 675 62 718 M 151.040 718 L 150.932 761 193.582 761 L 236.232 761 235.866 718.004 L 235.500 675.008 193.324 675.004 L 151.147 675 151.040 718 M 240 718.011 L 240 761.022 282.250 760.761 L 324.500 760.500 324.507 719.500 C 324.510 696.950, 324.345 677.712, 324.140 676.750 C 323.792 675.117, 320.963 675, 281.883 675 L 240 675 240 718.011 M 329.021 718.011 L 328.964 761.022 371.232 760.761 L 413.500 760.500 413.500 720 C 413.500 697.725, 413.335 678.487, 413.133 677.250 L 412.767 675 370.923 675 L 329.079 675 329.021 718.011 M 418.032 718 L 417.947 761 460.223 760.995 L 502.500 760.990 502.500 720.745 C 502.500 698.610, 502.387 679.263, 502.250 677.750 L 502 675 460.059 675 L 418.117 675 418.032 718 M 507.021 718 L 506.961 761 549.322 761 L 591.682 761 591.805 730.750 C 591.873 714.112, 591.607 695.438, 591.213 689.250 C 590.819 683.063, 590.835 678, 591.248 678 C 591.662 678, 592 677.325, 592 676.500 C 592 675.190, 586.616 675, 549.541 675 L 507.081 675 507.021 718 M 596.076 718 L 596.237 761 638.717 761 L 681.198 761 680.943 720.250 C 680.803 697.837, 680.485 678.487, 680.236 677.250 L 679.783 675 637.849 675 L 595.915 675 596.076 718 M 685.707 675.627 C 685.362 675.971, 685.054 695.321, 685.021 718.627 L 684.962 761 727.594 761 L 770.225 761 769.626 719.750 C 769.296 697.063, 769.020 677.712, 769.013 676.750 C 769.001 675.112, 766.360 675, 727.667 675 C 704.933 675, 686.051 675.282, 685.707 675.627 M 774.591 679.750 C 774.263 682.362, 774.093 701.712, 774.215 722.750 L 774.435 761 816.468 760.999 L 858.500 760.998 858.845 723.004 C 859.034 702.108, 858.879 682.758, 858.501 680.005 L 857.812 675 816.500 675 L 775.188 675 774.591 679.750 M 863.021 718 L 862.963 761 905.319 761 L 947.675 761 947.891 736.750 C 948.010 723.413, 947.796 704.063, 947.416 693.750 L 946.725 675 904.902 675 L 863.080 675 863.021 718 M 952 718 L 952 761 994.500 761 L 1037 761 1036.986 720.250 C 1036.979 697.837, 1036.701 678.487, 1036.370 677.250 L 1035.767 675 993.883 675 L 952 675 952 718 M 1041.043 718.011 L 1040.928 761.022 1083.214 760.761 L 1125.500 760.500 1125.798 723 C 1125.962 702.375, 1125.817 683.138, 1125.476 680.250 L 1124.856 675 1083.007 675 L 1041.157 675 1041.043 718.011 M 1130.723 675.750 C 1130.505 676.163, 1130.213 695.517, 1130.073 718.761 L 1129.818 761.022 1172.159 760.761 L 1214.500 760.500 1214.798 723 C 1214.962 702.375, 1214.817 683.138, 1214.476 680.250 L 1213.856 675 1172.487 675 C 1149.734 675, 1130.940 675.337, 1130.723 675.750 M 1219.021 718 L 1218.961 761 1261.608 761 L 1304.254 761 1303.706 718.250 C 1303.405 694.737, 1303.122 675.388, 1303.079 675.250 C 1303.036 675.112, 1284.118 675, 1261.041 675 L 1219.081 675 1219.021 718 M 1308.824 676.750 C 1308.727 677.712, 1308.615 697.061, 1308.574 719.746 L 1308.500 760.993 1350.750 760.996 L 1393 761 1392.986 720.250 C 1392.979 697.837, 1392.701 678.487, 1392.370 677.250 L 1391.767 675 1350.383 675 C 1311.704 675, 1308.989 675.114, 1308.824 676.750 M 1397.599 675.840 C 1397.313 676.302, 1397.151 695.652, 1397.237 718.840 L 1397.395 761 1439.774 761 L 1482.153 761 1481.826 718.002 L 1481.500 675.004 1439.809 675.002 C 1416.879 675.001, 1397.884 675.378, 1397.599 675.840 M 1486.903 675.239 C 1486.849 675.383, 1486.713 694.737, 1486.601 718.250 L 1486.397 761 1528.744 761 L 1571.092 761 1570.796 718.250 L 1570.500 675.500 1528.750 675.239 C 1505.787 675.095, 1486.956 675.095, 1486.903 675.239 M 1575.500 717.999 L 1575.500 760.999 1617.886 761 L 1660.272 761 1659.705 718.250 C 1659.394 694.737, 1659.107 675.388, 1659.069 675.250 C 1659.031 675.112, 1640.213 675, 1617.250 675 L 1575.500 675 1575.500 717.999 M 1664.500 717.999 L 1664.500 760.997 1706.750 760.999 L 1749 761 1749 721.125 C 1749 699.194, 1748.719 679.844, 1748.375 678.125 L 1747.750 675 1706.125 675 L 1664.499 675 1664.500 717.999 M 1753.421 717.997 L 1753.500 760.994 1795.787 760.997 L 1838.075 761 1837.958 718 L 1837.840 675 1795.591 675 L 1753.341 675 1753.421 717.997 M 1842.987 675.250 C 1842.980 675.388, 1842.867 694.738, 1842.737 718.250 L 1842.500 761.001 1870.750 761 L 1899 761 1899 718 L 1899 675 1871 675 C 1855.600 675, 1842.994 675.112, 1842.987 675.250 M 0 807.015 L 0 850.031 28.574 849.765 L 57.147 849.500 57.181 841.500 C 57.199 837.100, 57.166 817.862, 57.107 798.750 L 57 764 28.500 764 L 0 764 0 807.015 M 62.022 805.370 C 61.990 828.124, 62.245 847.474, 62.589 848.370 C 63.153 849.840, 67.262 850, 104.459 850 L 145.703 850 146.392 835.207 C 146.771 827.071, 147.024 807.721, 146.954 792.207 L 146.827 764 104.454 764 L 62.081 764 62.022 805.370 M 151 807 L 151 850 193.317 850 L 235.633 850 235.567 807.001 L 235.500 764.001 193.250 764.001 L 151 764 151 807 M 240 807.011 L 240 850.022 282.250 849.761 L 324.500 849.500 324.592 806.750 L 324.684 764 282.342 764 L 240 764 240 807.011 M 329 807.011 L 329 850.022 371.012 849.761 L 413.024 849.500 413.380 806.750 L 413.736 764 371.368 764 L 329 764 329 807.011 M 418.300 806.750 L 418.500 849.500 460.745 849.761 L 502.989 850.022 502.934 807.011 L 502.879 764 460.490 764 L 418.101 764 418.300 806.750 M 507 807 L 507 850 549.280 850 L 591.561 850 591.530 807 L 591.500 764 549.250 764 L 507 764 507 807 M 596 807.011 L 596 850.022 638.250 849.761 L 680.500 849.500 680.586 806.750 L 680.673 764 638.336 764 L 596 764 596 807.011 M 685.500 806.750 L 685.500 849.500 727.353 849.500 L 769.205 849.500 769.477 806.750 L 769.749 764 727.624 764 L 685.500 764.001 685.500 806.750 M 774.041 805.327 C 773.980 828.056, 774.219 847.406, 774.572 848.327 C 775.158 849.854, 778.860 850, 817.093 850 L 858.973 850 858.945 807 L 858.917 764 816.535 764 L 774.153 764 774.041 805.327 M 863.032 807 L 862.943 850 905.279 850 L 947.615 850 947.581 807 L 947.547 764 905.334 764 L 863.121 764 863.032 807 M 952 807.011 L 952 850.022 994.250 849.761 L 1036.500 849.500 1036.667 806.750 L 1036.835 764 994.417 764 L 952 764 952 807.011 M 1041.191 804.701 C 1041.021 827.082, 1041.143 846.435, 1041.463 847.708 L 1042.044 850.022 1083.772 849.761 L 1125.500 849.500 1125.617 806.750 L 1125.733 764 1083.617 764.004 L 1041.500 764.007 1041.191 804.701 M 1130.312 806.750 L 1130.500 849.500 1172.707 849.761 L 1214.914 850.022 1214.977 810.237 C 1215.012 788.355, 1214.750 769, 1214.395 767.226 L 1213.750 764 1171.937 764 L 1130.124 764 1130.312 806.750 M 1219.177 807 L 1219.382 850 1261.493 850 L 1303.604 850 1303.640 807 L 1303.677 764 1261.325 764 L 1218.972 764 1219.177 807 M 1308.416 807.010 L 1308.500 850.020 1350.500 849.760 L 1392.500 849.500 1392.779 806.750 L 1393.057 764 1350.695 764 L 1308.332 764 1308.416 807.010 M 1397.500 806.753 L 1397.500 849.500 1439.785 849.761 L 1482.070 850.022 1481.961 807.011 L 1481.852 764 1439.676 764.003 L 1397.500 764.005 1397.500 806.753 M 1486.232 805.157 C 1486.085 827.792, 1486.227 847.141, 1486.549 848.156 C 1487.106 849.909, 1489.192 850, 1529.054 850 L 1570.973 850 1570.945 807 L 1570.917 764 1528.709 764.002 L 1486.500 764.004 1486.232 805.157 M 1575.500 806.999 L 1575.500 849.999 1617.665 849.999 L 1659.830 850 1659.779 807 L 1659.729 764 1617.614 764 L 1575.500 764 1575.500 806.999 M 1664.500 807.012 L 1664.500 850.022 1706.500 849.761 L 1748.500 849.500 1748.761 806.750 L 1749.021 764 1706.761 764.001 L 1664.500 764.001 1664.500 807.012 M 1753.621 805.751 C 1753.688 828.713, 1753.800 848.063, 1753.871 848.750 C 1753.972 849.728, 1763.139 850, 1796.018 850 L 1838.036 850 1837.979 807 L 1837.921 764 1795.711 764.001 L 1753.500 764.001 1753.621 805.751 M 1842.771 807 L 1843.042 850 1871.021 850 L 1899 850 1899 807 L 1899 764 1870.750 764 L 1842.500 763.999 1842.771 807 M 0 896 L 0 939 28.361 939 L 56.722 939 57.448 898.750 C 57.847 876.612, 57.861 857.263, 57.479 855.750 L 56.783 853 28.392 853 L 0 853 0 896 M 62.021 896 L 61.961 939 103.981 939 C 136.808 939, 146.050 938.727, 146.227 937.750 C 146.352 937.063, 146.464 917.713, 146.477 894.752 L 146.500 853.004 104.291 853.002 L 62.081 853 62.021 896 M 151.040 895.989 L 151.141 939 193.071 939 L 235 939 235.019 924.250 C 235.030 916.138, 235.142 896.900, 235.269 881.500 L 235.500 853.500 193.219 853.239 L 150.939 852.978 151.040 895.989 M 240 896 L 240 939 281.892 939 L 323.783 939 324.268 936.750 C 324.534 935.513, 324.840 916.163, 324.947 893.750 L 325.143 853 282.571 853 L 240 853 240 896 M 329.021 896 L 328.961 939 370.824 939 L 412.686 939 413.343 922.340 C 414.168 901.411, 414.201 856.689, 413.393 854.582 C 412.853 853.174, 408.175 853, 370.934 853 L 329.081 853 329.021 896 M 418.574 853.880 C 418.275 854.364, 418.136 873.602, 418.265 896.630 L 418.500 938.500 460.177 938.761 L 501.853 939.022 502.494 933.761 C 502.960 929.930, 502.634 872.911, 502.040 854.250 C 502.009 853.271, 493.024 853, 460.559 853 C 437.766 853, 418.873 853.396, 418.574 853.880 M 507 896 L 507 939 549.250 938.997 L 591.500 938.995 591.688 895.997 L 591.875 853 549.438 853 L 507 853 507 896 M 596 896 L 596 939 638 939 C 661.100 939, 680.024 938.663, 680.052 938.250 C 680.081 937.837, 680.338 918.487, 680.624 895.250 L 681.143 853 638.572 853 L 596 853 596 896 M 685.101 894.458 C 685.062 917.260, 685.297 936.610, 685.622 937.458 C 686.142 938.813, 691.225 939, 727.498 939 L 768.781 939 769.186 935.530 C 769.409 933.621, 769.705 914.271, 769.845 892.530 L 770.098 853 727.634 853 L 685.171 853 685.101 894.458 M 774.201 896 L 773.902 939 816.386 939 L 858.870 939 858.789 896 L 858.707 853 816.603 853 L 774.500 853 774.201 896 M 863.021 896 L 862.963 939 904.839 939 L 946.715 939 947.292 908.750 C 947.610 892.112, 947.934 872.763, 948.012 865.750 L 948.155 853 905.617 853 L 863.080 853 863.021 896 M 952.021 896 L 952.081 939 993.932 939 L 1035.783 939 1036.302 936.750 C 1036.588 935.513, 1036.885 916.163, 1036.962 893.750 L 1037.102 853 994.532 853 L 951.961 853 952.021 896 M 1041.179 896 L 1041.162 939 1082.971 939 L 1124.781 939 1125.187 935.520 C 1125.411 933.607, 1125.707 914.257, 1125.845 892.520 L 1126.096 853 1083.646 853 L 1041.196 853 1041.179 896 M 1130.576 855.551 C 1129.809 858.610, 1129.900 935.576, 1130.674 937.593 C 1131.126 938.771, 1138.017 939, 1173.104 939 L 1214.994 939 1214.819 896 L 1214.644 853 1172.931 853 L 1131.217 853 1130.576 855.551 M 1219 896 L 1219 939 1261.250 938.999 L 1303.500 938.999 1303.870 895.999 L 1304.241 853 1261.620 853 L 1219 853 1219 896 M 1308.349 894.254 C 1308.239 924.409, 1308.508 935.698, 1309.349 936.235 C 1310.172 936.760, 1310.127 936.974, 1309.191 936.985 C 1308.471 936.993, 1308.160 937.450, 1308.500 938 C 1308.896 938.641, 1324.130 939, 1350.919 939 L 1392.720 939 1392.920 896 L 1393.119 853 1350.810 853.004 L 1308.500 853.007 1308.349 894.254 M 1397.855 854.239 C 1397.776 854.933, 1397.663 874.287, 1397.605 897.250 L 1397.500 939 1439.667 939 L 1481.834 939 1481.667 896.250 L 1481.500 853.500 1439.750 853.239 C 1406.745 853.033, 1397.970 853.242, 1397.855 854.239 M 1486.763 854.750 C 1486.633 855.712, 1486.521 875.061, 1486.513 897.746 L 1486.500 938.992 1528.710 938.996 L 1570.920 939 1570.979 896 L 1571.037 853 1529.019 853 C 1489.758 853, 1486.984 853.115, 1486.763 854.750 M 1575.500 896 L 1575.500 939 1617.500 938.999 L 1659.500 938.998 1659.881 895.999 L 1660.262 853 1617.881 853 L 1575.500 853 1575.500 896 M 1664.620 894.251 C 1664.686 916.938, 1664.798 936.288, 1664.870 937.250 C 1664.992 938.886, 1667.687 939, 1706.383 939 L 1747.767 939 1748.370 936.750 C 1748.701 935.513, 1748.979 916.163, 1748.986 893.750 L 1749 853 1706.750 853.001 L 1664.500 853.003 1664.620 894.251 M 1754.012 854.250 C 1754.019 854.938, 1753.860 874.288, 1753.659 897.250 L 1753.293 939 1795.022 939 L 1836.750 939 1837.395 935.774 C 1837.750 934, 1838.012 914.650, 1837.977 892.774 L 1837.914 853 1795.957 853 C 1763.051 853, 1754.003 853.270, 1754.012 854.250 M 1842.750 855.527 C 1842.484 856.917, 1842.452 875.705, 1842.679 897.277 C 1842.905 918.850, 1843.070 937.063, 1843.045 937.750 C 1843.010 938.721, 1849.242 939, 1871 939 L 1899 939 1899 896 L 1899 853 1871.117 853 L 1843.233 853 1842.750 855.527 M 0 984.985 L 0 1028 28.764 1028 L 57.528 1028 57.484 985.250 L 57.441 942.500 28.720 942.235 L 0 941.969 0 984.985 M 62.677 942.656 C 62.305 943.028, 62 962.383, 62 985.667 L 62 1028 104.250 1027.999 L 146.500 1027.999 146.500 985.249 L 146.500 942.500 104.927 942.239 C 82.063 942.096, 63.050 942.283, 62.677 942.656 M 151.021 985 L 151.079 1028 193.039 1028 C 231.081 1028, 235 1027.848, 235 1026.377 C 235 1025.485, 235.214 1015.697, 235.476 1004.627 C 235.737 993.557, 235.668 974.938, 235.323 963.250 L 234.695 942 192.829 942 L 150.964 942 151.021 985 M 240 985 L 240 1028 282.447 1028 L 324.895 1028 324.972 996.928 C 325.014 979.839, 324.745 960.489, 324.374 953.928 L 323.700 942 281.850 942 L 240 942 240 985 M 329.032 985.011 L 329.121 1028.022 371.310 1027.761 L 413.500 1027.500 413.838 1007 C 414.024 995.725, 413.862 976.487, 413.477 964.250 L 412.777 942 370.860 942 L 328.943 942 329.032 985.011 M 418 985 L 418 1028 459.893 1028 C 492.495 1028, 501.888 1027.723, 502.247 1026.750 C 502.501 1026.063, 502.754 1006.712, 502.809 983.750 L 502.911 942 460.455 942 L 418 942 418 985 M 507 985 L 507 1028 549.447 1028 L 591.895 1028 591.697 985.001 L 591.500 942.002 549.250 942.001 L 507 942 507 985 M 596.044 985 L 596.100 1028 638.674 1028 L 681.248 1028 680.874 985.001 L 680.500 942.002 638.244 942.001 L 595.988 942 596.044 985 M 685.110 985 L 685.386 1028 727.767 1028 L 770.148 1028 769.824 985 L 769.500 942.001 727.167 942 L 684.834 942 685.110 985 M 774.629 942.791 C 774.353 943.239, 774.126 962.593, 774.126 985.802 L 774.126 1028 816.368 1028 L 858.611 1028 858.555 985.250 L 858.500 942.500 816.816 942.239 C 793.889 942.096, 774.905 942.344, 774.629 942.791 M 863.677 942.739 C 863.427 943.158, 863.204 962.513, 863.181 985.750 L 863.140 1028 905.653 1028 L 948.167 1028 947.834 985.250 L 947.500 942.500 905.816 942.239 C 882.889 942.096, 863.927 942.321, 863.677 942.739 M 952 985 L 952 1028 994.500 1028 L 1037 1028 1037 986.582 C 1037 963.802, 1036.727 944.452, 1036.393 943.582 C 1035.853 942.174, 1031.171 942, 993.893 942 L 952 942 952 985 M 1041.042 985 L 1041.160 1028 1083.554 1028 L 1125.949 1028 1125.934 985 L 1125.919 942 1083.422 942 L 1040.925 942 1041.042 985 M 1130.721 942.750 C 1130.503 943.163, 1130.230 962.513, 1130.115 985.750 L 1129.905 1028 1172.429 1028 L 1214.952 1028 1214.945 985 L 1214.939 942 1173.028 942 C 1149.978 942, 1130.939 942.337, 1130.721 942.750 M 1219.607 943.582 C 1219.273 944.452, 1219 963.802, 1219 986.582 L 1219 1028 1261.562 1028 L 1304.124 1028 1303.925 985 L 1303.727 942 1261.971 942 C 1224.817 942, 1220.147 942.174, 1219.607 943.582 M 1308.500 985 L 1308.500 1028 1350.750 1028 L 1393 1028 1393 985 L 1393 942 1350.750 942 L 1308.500 942 1308.500 985 M 1397.260 985 L 1397.021 1028 1439.612 1028 L 1482.204 1028 1481.852 985 L 1481.500 942 1439.500 942 L 1397.500 942.001 1397.260 985 M 1486.685 943.750 C 1486.438 944.712, 1486.198 964.063, 1486.152 986.750 L 1486.068 1028 1528.534 1028 L 1571 1028 1571 985 L 1571 942 1529.067 942 C 1489.969 942, 1487.104 942.118, 1486.685 943.750 M 1575.500 985.001 L 1575.500 1028.022 1617.500 1027.761 L 1659.500 1027.500 1659.500 985 L 1659.500 942.500 1617.500 942.240 L 1575.500 941.980 1575.500 985.001 M 1664.500 985.001 L 1664.500 1028.001 1706.750 1028 L 1749 1028 1749 985 L 1749 942 1706.750 942.001 L 1664.500 942.001 1664.500 985.001 M 1753.590 961.750 C 1753.640 972.613, 1753.752 991.962, 1753.840 1004.750 L 1754 1028 1796 1028 L 1838 1028 1838 985 L 1838 942 1795.750 942 L 1753.500 942 1753.590 961.750 M 1842.939 971.750 C 1842.905 988.112, 1842.793 1007.463, 1842.689 1014.750 L 1842.500 1028 1870.750 1028 L 1899 1028 1899 985 L 1899 942 1871 942 L 1843 942 1842.939 971.750 M 0 1049.500 L 0 1068 28.398 1068 L 56.795 1068 57.511 1054.640 C 57.904 1047.292, 57.908 1038.967, 57.519 1036.140 L 56.812 1031 28.406 1031 L 0 1031 0 1049.500 M 62 1049.500 L 62 1068 103.949 1068 L 145.897 1068 146.199 1053.750 C 146.364 1045.912, 146.362 1037.588, 146.193 1035.250 L 145.885 1031 103.943 1031 L 62 1031 62 1049.500 M 151 1049.500 L 151 1068 193.250 1068.001 L 235.500 1068.001 235.500 1049.503 L 235.500 1031.005 193.250 1031.002 L 151 1031 151 1049.500 M 240 1049.500 L 240 1068 282.500 1068 L 325 1068 325 1049.500 L 325 1031 282.500 1031 L 240 1031 240 1049.500 M 329.677 1031.656 C 329.305 1032.028, 329 1040.358, 329 1050.167 L 329 1068 371.363 1068 L 413.726 1068 413.613 1049.750 L 413.500 1031.500 371.927 1031.239 C 349.063 1031.096, 330.050 1031.283, 329.677 1031.656 M 418 1049.500 L 418 1068 459.864 1068 L 501.727 1068 502.431 1057.488 C 502.818 1051.706, 502.822 1043.381, 502.439 1038.988 L 501.742 1031 459.871 1031 L 418 1031 418 1049.500 M 507 1049.500 L 507 1068 548.957 1068 L 590.915 1068 591.207 1049.499 L 591.500 1030.998 549.250 1030.999 L 507 1031 507 1049.500 M 596 1049.500 L 596 1068 638.413 1068 L 680.827 1068 680.663 1049.500 L 680.500 1031 638.250 1031 L 596 1031 596 1049.500 M 685 1049.489 L 685 1068 727.523 1068 L 770.045 1068 769.773 1049.750 L 769.500 1031.500 727.250 1031.239 L 685 1030.978 685 1049.489 M 774 1049.500 L 774 1068 816.500 1068 L 859 1068 859 1049.500 L 859 1031 816.500 1031 L 774 1031 774 1049.500 M 863 1049.500 L 863 1068 905.250 1068 L 947.500 1068.001 947.500 1049.504 L 947.500 1031.006 905.250 1031.003 L 863 1031 863 1049.500 M 952 1049.500 L 952 1068 994.500 1068 L 1037 1068 1037 1049.500 L 1037 1031 994.500 1031 L 952 1031 952 1049.500 M 1041.795 1033.292 C 1041.552 1034.565, 1041.241 1042.895, 1041.106 1051.803 L 1040.858 1068 1083.452 1068 L 1126.045 1068 1125.773 1049.750 L 1125.500 1031.500 1083.869 1031.239 L 1042.237 1030.978 1041.795 1033.292 M 1130 1049.489 L 1130 1068 1171.981 1068 L 1213.962 1068 1214.517 1065.750 C 1214.822 1064.513, 1214.943 1056.300, 1214.786 1047.500 L 1214.500 1031.500 1172.250 1031.239 L 1130 1030.978 1130 1049.489 M 1219 1049.500 L 1219 1068 1261.500 1068 L 1304 1068 1304 1049.500 L 1304 1031 1261.500 1031 L 1219 1031 1219 1049.500 M 1308.415 1049.501 L 1308.330 1068 1350.665 1068 L 1393 1068 1393 1049.500 L 1393 1031 1350.750 1031.001 L 1308.500 1031.002 1308.415 1049.501 M 1397.500 1049.504 L 1397.500 1068.001 1439.750 1068 L 1482 1068 1482 1049.500 L 1482 1031 1439.750 1031.003 L 1397.500 1031.006 1397.500 1049.504 M 1486.123 1049.500 L 1486.019 1068 1528.510 1068 L 1571 1068 1571 1049.500 L 1571 1031 1528.614 1031 L 1486.228 1031 1486.123 1049.500 M 1575.411 1049.489 L 1575.500 1067.999 1617.773 1068 L 1660.045 1068 1659.773 1049.750 L 1659.500 1031.500 1617.411 1031.239 L 1575.323 1030.979 1575.411 1049.489 M 1664.247 1049.500 L 1664.058 1068 1706.529 1068 L 1749 1068 1749 1049.500 L 1749 1031 1706.718 1031 L 1664.436 1031 1664.247 1049.500 M 1753.623 1045.396 C 1753.249 1053.313, 1753.238 1061.638, 1753.599 1063.896 L 1754.256 1068 1796.128 1068 L 1838 1068 1838 1049.500 L 1838 1031 1796.152 1031 L 1754.303 1031 1753.623 1045.396 M 1843 1049.500 L 1843 1068 1871 1068 L 1899 1068 1899 1049.500 L 1899 1031 1871 1031 L 1843 1031 1843 1049.500" stroke="none" fill="#000000" fill-rule="evenodd"/>
</svg>